<svg version="1.1" id="Layer_1" xmlns="http://www.w3.org/2000/svg" xmlns:xlink="http://www.w3.org/1999/xlink" x="0px" y="0px"
	 width="100%" viewBox="0 0 137 163" enable-background="new 0 0 137 163" xml:space="preserve">
<path fill="#FDFDFD" opacity="1.000000" stroke="none" 
	d="
M67.000000,164.000000 
	C44.684872,164.000000 22.869743,164.000000 1.027307,164.000000 
	C1.027307,109.730186 1.027307,55.460358 1.027307,1.095263 
	C46.564903,1.095263 92.130066,1.095263 137.847626,1.095263 
	C137.847626,55.332996 137.847626,109.666451 137.847626,164.000000 
	C114.460724,164.000000 90.980362,164.000000 67.000000,164.000000 
M53.938255,140.548874 
	C58.832485,146.540710 63.726715,152.532532 68.904861,158.871948 
	C88.909302,134.127106 108.547455,109.835373 128.960480,84.585129 
	C119.101006,84.585129 110.594719,84.585129 101.761604,84.585129 
	C105.817520,79.005028 105.817520,79.005302 111.645912,79.005707 
	C117.060501,79.006088 122.475090,79.005791 128.956589,79.005791 
	C108.551086,53.892464 88.832253,29.624241 68.845596,5.026402 
	C48.682816,29.847412 28.907534,54.191402 8.750584,79.005234 
	C15.326952,79.005234 21.018473,79.358070 26.643261,78.896927 
	C31.398598,78.507057 33.846565,80.700058 36.125668,85.093826 
	C27.014353,85.093826 18.511356,85.093826 9.203638,85.093826 
	C24.325420,103.874420 38.884518,121.956184 53.938255,140.548874 
z"/>
<path fill="#040406" opacity="1.000000" stroke="none" 
	d="
M53.690933,140.293411 
	C38.884518,121.956184 24.325420,103.874420 9.203638,85.093826 
	C18.511356,85.093826 27.014353,85.093826 36.125668,85.093826 
	C33.846565,80.700058 31.398598,78.507057 26.643261,78.896927 
	C21.018473,79.358070 15.326952,79.005234 8.750584,79.005234 
	C28.907534,54.191402 48.682816,29.847412 68.845596,5.026402 
	C88.832253,29.624241 108.551086,53.892464 128.956589,79.005791 
	C122.475090,79.005791 117.060501,79.006088 111.645912,79.005707 
	C105.817520,79.005302 105.817520,79.005028 101.761604,84.585129 
	C110.594719,84.585129 119.101006,84.585129 128.960480,84.585129 
	C108.547455,109.835373 88.909302,134.127106 68.904861,158.871948 
	C63.726715,152.532532 58.832485,146.540710 53.690933,140.293411 
M61.500000,69.995705 
	C77.552727,69.995705 93.605453,69.995705 110.576241,69.995705 
	C96.273163,52.420807 82.641678,35.671131 68.829231,18.699099 
	C54.874058,35.894611 41.347717,52.561722 27.199070,69.995636 
	C38.974533,69.995636 49.737267,69.995636 61.500000,69.995705 
M47.390034,96.944656 
	C41.943600,89.537308 34.417896,94.793442 28.045704,93.024284 
	C27.848837,93.392181 27.651968,93.760078 27.455099,94.127975 
	C41.151031,111.053604 54.846966,127.979225 68.857201,145.293274 
	C82.913666,127.911453 96.679985,110.888420 111.035622,93.136658 
	C105.345169,93.136658 100.851349,92.914665 96.398857,93.246696 
	C94.635506,93.378197 92.562660,94.350723 91.329422,95.619453 
	C88.219246,98.819145 85.587334,102.477005 82.615028,105.818970 
	C78.046402,110.955788 73.353241,115.981857 68.700256,121.068764 
	C61.513798,112.899940 54.719498,105.176880 47.390034,96.944656 
M48.004303,84.536743 
	C54.850063,92.374252 61.695820,100.211761 68.861809,108.415894 
	C77.478905,98.577637 85.766121,89.116020 94.426727,79.228088 
	C77.000900,79.228088 60.484093,79.228088 43.258350,79.228088 
	C44.984318,81.134743 46.276051,82.561707 48.004303,84.536743 
z"/>
<path fill="#BDDAF0" opacity="1.000000" stroke="none" 
	d="
M61.000000,69.995667 
	C49.737267,69.995636 38.974533,69.995636 27.199070,69.995636 
	C41.347717,52.561722 54.874058,35.894611 68.829231,18.699099 
	C82.641678,35.671131 96.273163,52.420807 110.576241,69.995705 
	C93.605453,69.995705 77.552727,69.995705 61.000000,69.995667 
z"/>
<path fill="#8FB1D6" opacity="1.000000" stroke="none" 
	d="
M47.657616,97.199234 
	C54.719498,105.176880 61.513798,112.899940 68.700256,121.068764 
	C73.353241,115.981857 78.046402,110.955788 82.615028,105.818970 
	C85.587334,102.477005 88.219246,98.819145 91.329422,95.619453 
	C92.562660,94.350723 94.635506,93.378197 96.398857,93.246696 
	C100.851349,92.914665 105.345169,93.136658 111.035622,93.136658 
	C96.679985,110.888420 82.913666,127.911453 68.857201,145.293274 
	C54.846966,127.979225 41.151031,111.053604 27.455099,94.127975 
	C27.651968,93.760078 27.848837,93.392181 28.045704,93.024284 
	C34.417896,94.793442 41.943600,89.537308 47.657616,97.199234 
z"/>
<path fill="#F2D8B9" opacity="1.000000" stroke="none" 
	d="
M47.786041,84.262703 
	C46.276051,82.561707 44.984318,81.134743 43.258350,79.228088 
	C60.484093,79.228088 77.000900,79.228088 94.426727,79.228088 
	C85.766121,89.116020 77.478905,98.577637 68.861809,108.415894 
	C61.695820,100.211761 54.850063,92.374252 47.786041,84.262703 
z"/>
</svg>